<svg width="209" height="266" viewBox="0 0 209 266" fill="none" xmlns="http://www.w3.org/2000/svg">
<rect x="97" y="156" width="16" height="110" fill="url(#paint0_linear_3288_65486)"/>
<rect x="97" y="156" width="16" height="110" fill="url(#paint1_linear_3288_65486)"/>
<g filter="url(#filter0_d_3288_65486)">
<path fill-rule="evenodd" clip-rule="evenodd" d="M102.148 22.3233C100.303 22.8826 98.6482 23.9035 97.2924 25.3193C95.4722 27.2194 25.3413 163.007 24.742 165.791C23.5597 171.284 26.8417 177.72 31.6961 179.427C33.0581 179.906 45.0421 180 104.854 180C175.087 180 176.413 179.985 178.028 179.187C183.135 176.664 185.787 169.948 183.882 164.358C183.27 162.564 115.703 31.5581 113.235 27.3818C110.828 23.3082 106.066 21.1359 102.148 22.3233ZM136.247 102.73C153.513 136.211 167.704 163.798 167.783 164.034C167.882 164.329 148.054 164.463 104.437 164.463H40.9479L45.2813 156.073C90.2285 69.0513 104.362 41.8267 104.585 41.8399C104.733 41.8486 118.981 69.2494 136.247 102.73Z" fill="#DB3831"/>
<path d="M171.151 170.12C174.154 170.12 176.086 166.934 174.698 164.271L108.522 37.3086C107.026 34.4385 102.919 34.4409 101.426 37.3128L35.4391 164.275C34.0552 166.938 35.9874 170.12 38.9884 170.12H171.151Z" fill="white"/>
</g>
<path fill-rule="evenodd" clip-rule="evenodd" d="M109.727 83.578C108.418 84.3015 107.19 85.5706 106.621 86.7862C106.022 88.0663 105.932 90.8037 106.428 92.7002C107.195 95.6342 109.303 99.3712 111.256 101.258C112.86 102.807 115.369 103.405 117.128 102.656C119.367 101.703 121.87 98.7191 122.612 96.1177C123.77 92.0604 120.511 86.0394 115.978 83.8632C114.718 83.258 114.016 83.0813 112.628 83.021C111.09 82.9542 110.731 83.0231 109.727 83.578ZM86.0366 95.3645C85.7669 95.4756 85.2294 95.9785 84.8425 96.4819C84.2916 97.1987 77.4887 109.092 74.5298 114.511C73.0075 117.3 74.9423 120.669 78.0824 120.698C79.6197 120.712 80.9437 119.916 81.8044 118.459C82.1396 117.892 82.51 117.282 82.627 117.105C82.7951 116.849 83.3256 117.07 85.1517 118.155C86.4231 118.911 87.4994 119.558 87.5434 119.593C87.5874 119.629 87.2665 120.282 86.8301 121.046C85.6676 123.082 85.4005 123.871 85.5674 124.778C85.7718 125.888 86.2395 126.265 90.5065 128.764C92.5665 129.971 95.3829 131.643 96.7652 132.48C98.1475 133.316 99.3201 134.001 99.3711 134.001C99.4638 134.001 105.273 137.434 106.233 138.056C106.513 138.238 106.855 138.639 106.993 138.947C107.16 139.319 107.244 143.117 107.244 150.236C107.244 162.264 107.2 161.928 108.99 163.529C110.014 164.444 110.605 164.609 112.399 164.477C113.969 164.361 115.152 163.59 116.012 162.121C116.471 161.337 116.493 160.885 116.561 150.991C116.629 140.89 116.64 140.677 117.095 140.677C117.949 140.677 119.189 139.989 119.578 139.299L119.963 138.616L121.855 139.726C122.896 140.336 126.012 142.177 128.78 143.815C131.549 145.454 134.735 147.323 135.86 147.969C136.986 148.614 137.908 149.206 137.908 149.284C137.91 149.455 134.89 150.882 132.643 151.772C128.053 153.588 122.619 157.293 120.162 160.28C119.816 160.701 119.315 161.286 119.048 161.581C118.781 161.877 118.116 162.767 117.57 163.559L116.578 165H141.289C154.881 165 166 164.92 166 164.821C166 164.723 165.771 164.267 165.492 163.808C165.213 163.349 164.015 161.256 162.829 159.158C160.008 154.163 155.181 145.638 152.299 140.558C151.033 138.329 149.745 136.048 149.435 135.491C149.126 134.934 148.792 134.478 148.695 134.478C148.451 134.478 145.053 139.778 143.379 142.771C142.624 144.119 141.628 145.67 141.166 146.217L140.325 147.212L138.24 145.995C137.093 145.326 134.258 143.663 131.941 142.3C129.623 140.937 126.094 138.869 124.099 137.706C122.103 136.542 120.436 135.564 120.394 135.533C120.353 135.501 119.914 133.883 119.418 131.936C118.923 129.99 117.931 126.09 117.213 123.27C116.496 120.45 115.217 115.407 114.373 112.063C113.381 108.133 112.614 105.589 112.206 104.872C111.442 103.528 104.749 96.4201 103.541 95.6699C102.691 95.1417 102.573 95.1348 94.6031 95.1487C90.1613 95.1563 86.3062 95.2533 86.0366 95.3645ZM96.5531 104.372C93.9154 109.005 89.1636 116.951 89.0306 116.951C88.8997 116.951 84.6519 114.553 84.3331 114.3C84.2853 114.261 84.7594 113.34 85.3865 112.252C86.0139 111.164 86.7377 109.891 86.9952 109.423C87.2527 108.955 88.1432 107.372 88.9742 105.905L90.485 103.24H93.8414H97.1978L96.5531 104.372ZM107.895 118.68C110.17 127.398 110.457 128.455 110.61 128.708C110.937 129.246 110.332 129.17 109.223 128.534C106.491 126.965 101.114 123.782 100.998 123.664C100.929 123.593 101.358 122.721 101.951 121.725C102.545 120.73 103.03 119.863 103.03 119.799C103.03 119.736 103.313 119.23 103.658 118.675C104.003 118.12 104.402 117.452 104.544 117.189C105.624 115.203 106.376 113.97 106.509 113.97C106.595 113.97 107.219 116.089 107.895 118.68ZM86.4937 133.28C87.2485 139.362 87.2763 139.041 85.7742 141.579C85.3303 142.329 84.6728 143.479 84.313 144.135C83.9529 144.791 82.0844 148.117 80.1604 151.527C75.8953 159.087 75.8204 159.278 76.3543 161.237C77.2553 164.542 81.8536 165.697 84.0941 163.181C84.4295 162.805 85.4979 161.101 86.468 159.396C87.4383 157.691 90.1449 152.943 92.4827 148.846C94.8208 144.747 96.8469 141.064 96.9852 140.659C97.1751 140.105 97.1395 139.182 96.8399 136.906C96.6215 135.246 96.4239 133.876 96.401 133.862C96.3778 133.848 95.1474 133.131 93.6668 132.269C92.1861 131.406 89.8703 130.048 88.5205 129.251C87.1707 128.453 86.0094 127.801 85.9401 127.801C85.8708 127.801 86.1199 130.266 86.4937 133.28Z" fill="#1A1A1A"/>
<defs>
<filter id="filter0_d_3288_65486" x="0.5" y="0" width="208" height="206" filterUnits="userSpaceOnUse" color-interpolation-filters="sRGB">
<feFlood flood-opacity="0" result="BackgroundImageFix"/>
<feColorMatrix in="SourceAlpha" type="matrix" values="0 0 0 0 0 0 0 0 0 0 0 0 0 0 0 0 0 0 127 0" result="hardAlpha"/>
<feOffset dy="2"/>
<feGaussianBlur stdDeviation="12"/>
<feComposite in2="hardAlpha" operator="out"/>
<feColorMatrix type="matrix" values="0 0 0 0 0 0 0 0 0 0 0 0 0 0 0 0 0 0 0.24 0"/>
<feBlend mode="normal" in2="BackgroundImageFix" result="effect1_dropShadow_3288_65486"/>
<feBlend mode="normal" in="SourceGraphic" in2="effect1_dropShadow_3288_65486" result="shape"/>
</filter>
<linearGradient id="paint0_linear_3288_65486" x1="113" y1="211.379" x2="97" y2="211.379" gradientUnits="userSpaceOnUse">
<stop stop-color="#C4C4C4"/>
<stop offset="1" stop-color="#D8D8D8"/>
</linearGradient>
<linearGradient id="paint1_linear_3288_65486" x1="105" y1="156" x2="105" y2="234.517" gradientUnits="userSpaceOnUse">
<stop stop-color="#191919" stop-opacity="0"/>
<stop offset="1" stop-color="#191919"/>
</linearGradient>
</defs>
</svg>
